<svg width="24" height="24" viewBox="0 0 24 24" fill="none" xmlns="http://www.w3.org/2000/svg">
<path d="M12.0017 21.5C10.6877 21.5 9.45271 21.2506 8.29658 20.752C7.14043 20.2533 6.13474 19.5765 5.27953 18.7217C4.42429 17.8669 3.74723 16.8616 3.24835 15.706C2.74947 14.5504 2.50002 13.3156 2.50002 12.0017C2.50002 10.6877 2.74936 9.45268 3.24803 8.29655C3.74669 7.1404 4.42344 6.13472 5.27828 5.2795C6.13313 4.42427 7.13837 3.74721 8.294 3.24833C9.44962 2.74944 10.6844 2.5 11.9983 2.5C13.3123 2.5 14.5473 2.74933 15.7034 3.248C16.8596 3.74667 17.8653 4.42342 18.7205 5.27825C19.5757 6.1331 20.2528 7.13834 20.7517 8.29398C21.2505 9.44959 21.5 10.6844 21.5 11.9983C21.5 13.3122 21.2506 14.5473 20.752 15.7034C20.2533 16.8596 19.5766 17.8652 18.7217 18.7205C17.8669 19.5757 16.8616 20.2527 15.706 20.7516C14.5504 21.2505 13.3156 21.5 12.0017 21.5ZM12 20C14.2333 20 16.125 19.225 17.675 17.675C19.225 16.125 20 14.2333 20 12C20 9.76664 19.225 7.87498 17.675 6.32498C16.125 4.77498 14.2333 3.99998 12 3.99998C9.76667 3.99998 7.875 4.77498 6.325 6.32498C4.775 7.87498 4 9.76664 4 12C4 14.2333 4.775 16.125 6.325 17.675C7.875 19.225 9.76667 20 12 20Z" fill="white"/>
<path d="M9.07419 17C8.93064 17 8.81043 16.9476 8.71358 16.8427C8.61673 16.7378 8.5683 16.6076 8.5683 16.4522C8.5683 16.2967 8.61673 16.1666 8.71358 16.0617C8.81043 15.9568 8.93064 15.9044 9.07419 15.9044H13.4094C14.1134 15.9044 14.7191 15.6527 15.2268 15.1493C15.7344 14.646 15.9882 14.0244 15.9882 13.2846C15.9882 12.5448 15.7344 11.9244 15.2268 11.4234C14.7191 10.9223 14.1134 10.6718 13.4094 10.6718H8.67333L10.195 12.3196C10.2927 12.4254 10.3415 12.5537 10.3415 12.7044C10.3415 12.8552 10.2927 12.9835 10.195 13.0893C10.0972 13.1952 9.97768 13.2469 9.83628 13.2446C9.6949 13.2422 9.57751 13.1905 9.48411 13.0893L7.17253 10.5862C7.1094 10.5178 7.06487 10.4457 7.03892 10.3698C7.01297 10.294 7 10.2121 7 10.124C7 10.036 7.01297 9.95406 7.03892 9.8782C7.06487 9.80236 7.1094 9.73025 7.17253 9.66188L9.48411 7.15873C9.58184 7.05291 9.70031 7 9.83954 7C9.97876 7 10.0972 7.05291 10.195 7.15873C10.2927 7.26454 10.3404 7.39401 10.3383 7.54712C10.3361 7.70022 10.2884 7.82734 10.195 7.92848L8.67333 9.57622H13.4094C14.3961 9.57622 15.2412 9.93277 15.9448 10.6459C16.6483 11.359 17 12.2386 17 13.2846C17 14.3306 16.6483 15.2114 15.9448 15.9268C15.2412 16.6423 14.3961 17 13.4094 17H9.07419Z" fill="white"/>
</svg>
