<svg width="24" height="24" viewBox="0 0 24 24" fill="none" xmlns="http://www.w3.org/2000/svg">
<path d="M11.35 12.65V15.9C11.35 16.0842 11.4118 16.2385 11.5355 16.3631C11.6591 16.4877 11.8123 16.55 11.9951 16.55C12.1778 16.55 12.3327 16.4877 12.4596 16.3631C12.5865 16.2385 12.65 16.0842 12.65 15.9V12.65H15.9C16.0842 12.65 16.2385 12.5882 16.3631 12.4645C16.4877 12.3409 16.55 12.1877 16.55 12.0049C16.55 11.8222 16.4877 11.6673 16.3631 11.5404C16.2385 11.4135 16.0842 11.35 15.9 11.35H12.65V8.1C12.65 7.91583 12.5882 7.76147 12.4645 7.6369C12.3409 7.51232 12.1877 7.45002 12.0049 7.45002C11.8222 7.45002 11.6673 7.51232 11.5404 7.6369C11.4135 7.76147 11.35 7.91583 11.35 8.1V11.35H8.1C7.91583 11.35 7.76147 11.4118 7.6369 11.5355C7.51232 11.6591 7.45002 11.8123 7.45002 11.9951C7.45002 12.1778 7.51232 12.3327 7.6369 12.4596C7.76147 12.5865 7.91583 12.65 8.1 12.65H11.35ZM12.0086 21.1C10.7567 21.1 9.57771 20.8631 8.47157 20.3895C7.36542 19.9158 6.39724 19.2641 5.56702 18.4342C4.73679 17.6044 4.08473 16.637 3.61085 15.5321C3.13697 14.4271 2.90002 13.2465 2.90002 11.9902C2.90002 10.7339 3.13686 9.55687 3.61052 8.45907C4.08419 7.36126 4.73594 6.39724 5.56577 5.56703C6.39562 4.73679 7.36302 4.08473 8.46795 3.61085C9.57288 3.13697 10.7535 2.90002 12.0098 2.90002C13.2661 2.90002 14.4431 3.13686 15.5409 3.61053C16.6387 4.08419 17.6028 4.73594 18.433 5.56577C19.2632 6.39562 19.9153 7.36107 20.3891 8.4621C20.863 9.56313 21.1 10.7396 21.1 11.9914C21.1 13.2433 20.8631 14.4223 20.3895 15.5284C19.9158 16.6346 19.2641 17.6028 18.4342 18.433C17.6044 19.2632 16.6389 19.9153 15.5379 20.3891C14.4369 20.863 13.2604 21.1 12.0086 21.1ZM12 19.8C14.1667 19.8 16.0083 19.0417 17.525 17.525C19.0417 16.0083 19.8 14.1667 19.8 12C19.8 9.83333 19.0417 7.99167 17.525 6.475C16.0083 4.95833 14.1667 4.2 12 4.2C9.83333 4.2 7.99167 4.95833 6.475 6.475C4.95833 7.99167 4.2 9.83333 4.2 12C4.2 14.1667 4.95833 16.0083 6.475 17.525C7.99167 19.0417 9.83333 19.8 12 19.8Z" fill="white"/>
</svg>
