<svg width="24" height="24" viewBox="0 0 24 24" fill="none" xmlns="http://www.w3.org/2000/svg">
<path d="M12 12.9288L15.0731 16.0019C15.2115 16.1404 15.3647 16.207 15.5327 16.2019C15.7006 16.1968 15.857 16.1218 16.0019 15.9769C16.1468 15.832 16.2192 15.6772 16.2192 15.5125C16.2192 15.3478 16.1468 15.1933 16.0019 15.0492L12.9288 11.9875L16.0019 8.92583C16.1404 8.78809 16.2112 8.63525 16.2144 8.4673C16.2176 8.29937 16.1468 8.14297 16.0019 7.9981C15.857 7.85322 15.7022 7.78078 15.5375 7.78078C15.3728 7.78078 15.218 7.85322 15.0731 7.9981L12 11.0712L8.9269 7.9981C8.78845 7.85963 8.63942 7.7888 8.4798 7.7856C8.3202 7.78238 8.16797 7.85322 8.0231 7.9981C7.87822 8.14297 7.80577 8.29777 7.80577 8.4625C7.80577 8.62723 7.87749 8.78203 8.02092 8.9269L11.0712 12L7.9981 15.0731C7.85963 15.2116 7.79297 15.3606 7.7981 15.5202C7.80322 15.6798 7.87822 15.832 8.0231 15.9769C8.16797 16.1218 8.32277 16.1942 8.4875 16.1942C8.65223 16.1942 8.80632 16.1225 8.94975 15.9791L12 12.9288ZM12.0086 21.1C10.7567 21.1 9.57771 20.8631 8.47157 20.3895C7.36542 19.9158 6.39724 19.2641 5.56702 18.4342C4.73679 17.6044 4.08473 16.637 3.61085 15.5321C3.13697 14.4271 2.90002 13.2465 2.90002 11.9902C2.90002 10.7339 3.13686 9.55687 3.61052 8.45907C4.08419 7.36126 4.73594 6.39724 5.56577 5.56703C6.39562 4.73679 7.36302 4.08473 8.46795 3.61085C9.57288 3.13697 10.7535 2.90002 12.0098 2.90002C13.2661 2.90002 14.4431 3.13686 15.5409 3.61053C16.6387 4.08419 17.6028 4.73594 18.433 5.56577C19.2632 6.39562 19.9153 7.36107 20.3892 8.4621C20.863 9.56313 21.1 10.7396 21.1 11.9914C21.1 13.2433 20.8631 14.4223 20.3895 15.5284C19.9158 16.6346 19.2641 17.6028 18.4342 18.433C17.6044 19.2632 16.6389 19.9153 15.5379 20.3892C14.4369 20.863 13.2604 21.1 12.0086 21.1ZM12 19.8C14.1667 19.8 16.0083 19.0417 17.525 17.525C19.0417 16.0083 19.8 14.1667 19.8 12C19.8 9.83333 19.0417 7.99167 17.525 6.475C16.0083 4.95833 14.1667 4.2 12 4.2C9.83333 4.2 7.99167 4.95833 6.475 6.475C4.95833 7.99167 4.2 9.83333 4.2 12C4.2 14.1667 4.95833 16.0083 6.475 17.525C7.99167 19.0417 9.83333 19.8 12 19.8Z" fill="white"/>
</svg>
